<svg xmlns="http://www.w3.org/2000/svg" width="246" height="287" viewBox="0 0 246 287" fill="none">
<path d="M142.287 77.8006C140.365 67.2099 132.242 59.2669 122.634 59.3688C113.026 59.3688 104.99 67.4136 103.069 78.0043C79.9219 87.5766 63.3262 113.34 63.3262 143.483C63.3262 173.626 90.1414 212.73 122.896 212.628C155.651 212.628 182.291 181.365 182.204 143.178C182.204 112.933 165.434 87.2711 142.2 77.9024L142.287 77.8006ZM122.721 72.9126C127.263 72.9126 131.019 77.1896 131.019 82.5868C131.019 87.9839 127.351 92.2609 122.721 92.2609C118.092 92.2609 114.424 87.9839 114.424 82.5868C114.424 77.1896 118.092 72.9126 122.721 72.9126ZM122.983 198.88C96.6923 198.88 75.2052 174.033 75.1179 143.381C75.1179 120.265 87.1716 100.408 104.379 91.9554C107.436 100.204 114.598 106.008 122.809 106.008C131.019 106.008 138.094 100.204 141.151 91.8536C158.359 100.204 170.587 120.061 170.587 143.076C170.587 166.09 149.275 198.779 122.983 198.88Z" fill="url(#paint0_linear_7_26)"/>
<path d="M122.547 0C54.8536 0.203667 -0.174277 64.5623 0.000414785 143.483C0.000414785 178.514 11.006 210.591 28.9993 235.439C27.6017 238.697 26.7283 242.363 26.7283 246.233C26.7283 259.064 35.7249 269.553 46.8178 269.553C57.9107 269.553 55.203 267.923 58.4348 265.174C77.2142 278.718 99.4001 286.559 123.071 286.457C190.764 286.253 245.792 221.895 245.617 142.974C245.442 64.0531 190.24 -0.101827 122.547 0.101839V0ZM46.8178 255.907C42.2758 255.907 38.52 251.63 38.52 246.233C38.52 240.836 42.1885 236.559 46.8178 236.559C51.4471 236.559 55.1157 240.836 55.1157 246.233C55.1157 251.63 51.4471 255.907 46.8178 255.907ZM123.071 272.709C102.02 272.709 82.3676 265.988 65.5972 254.176C66.3833 251.63 66.82 248.982 66.82 246.131C66.82 233.3 57.8234 222.811 46.7305 222.811C35.6375 222.811 40.0048 223.83 37.2098 225.663C21.3128 203.361 11.7921 174.746 11.7048 143.483C11.5301 72.098 61.3172 13.8493 122.547 13.6457C183.776 13.442 233.738 71.487 233.913 142.872C234.087 214.257 184.3 272.506 123.071 272.709Z" fill="url(#paint1_linear_7_26)"/>
<path d="M211.727 165.174C213.037 158.045 213.736 150.713 213.736 143.178C213.736 84.7253 172.945 37.271 122.896 37.271C72.8469 37.271 32.0564 84.8271 32.0564 143.178C32.0564 201.528 72.8469 249.084 122.896 249.084C172.945 249.084 179.06 232.384 195.655 206.62C196.965 206.925 198.363 207.129 199.761 207.129C210.766 207.129 219.763 196.64 219.763 183.809C219.763 170.978 216.618 169.451 211.727 165.174ZM122.809 235.54C79.1358 235.54 43.6734 194.094 43.6734 143.279C43.6734 92.4646 79.2232 51.0185 122.809 51.0185C166.394 51.0185 201.944 92.4646 201.944 143.279C201.944 194.094 201.42 154.99 200.547 160.591H199.673C188.668 160.591 179.671 171.08 179.671 183.911C179.671 196.742 181.767 195.825 185.261 200.001C170.762 221.589 148.226 235.54 122.896 235.54H122.809ZM199.761 193.483C195.219 193.483 191.463 189.104 191.463 183.809C191.463 178.514 195.219 174.135 199.761 174.135C204.303 174.135 208.058 178.514 208.058 183.809C208.058 189.104 204.303 193.483 199.761 193.483Z" fill="url(#paint2_linear_7_26)"/>
<defs>
<linearGradient id="paint0_linear_7_26" x1="63.3262" y1="135.947" x2="182.204" y2="135.947" gradientUnits="userSpaceOnUse">
<stop stop-color="#00FFDD"/>
<stop offset="0.2" stop-color="#2AC9E4"/>
<stop offset="0.4" stop-color="#6383ED"/>
<stop offset="0.6" stop-color="#904BF5"/>
<stop offset="0.8" stop-color="#B022FA"/>
<stop offset="0.9" stop-color="#C40AFD"/>
<stop offset="1" stop-color="#CC01FF"/>
</linearGradient>
<linearGradient id="paint1_linear_7_26" x1="0.000414785" y1="143.279" x2="245.617" y2="143.279" gradientUnits="userSpaceOnUse">
<stop stop-color="#00FFDD"/>
<stop offset="0.2" stop-color="#2AC9E4"/>
<stop offset="0.4" stop-color="#6383ED"/>
<stop offset="0.6" stop-color="#904BF5"/>
<stop offset="0.8" stop-color="#B022FA"/>
<stop offset="0.9" stop-color="#C40AFD"/>
<stop offset="1" stop-color="#CC01FF"/>
</linearGradient>
<linearGradient id="paint2_linear_7_26" x1="32.0564" y1="143.178" x2="219.763" y2="143.178" gradientUnits="userSpaceOnUse">
<stop stop-color="#00FFDD"/>
<stop offset="0.2" stop-color="#2AC9E4"/>
<stop offset="0.4" stop-color="#6383ED"/>
<stop offset="0.6" stop-color="#904BF5"/>
<stop offset="0.8" stop-color="#B022FA"/>
<stop offset="0.9" stop-color="#C40AFD"/>
<stop offset="1" stop-color="#CC01FF"/>
</linearGradient>
</defs>
</svg>